<svg xmlns="http://www.w3.org/2000/svg" width="48" height="48" viewBox="0 0 48 48"><g class="nc-icon-wrapper" fill="#FFFFFF" stroke-linejoin="miter" stroke-linecap="butt"><polyline points="4 12 4 4 12 4" fill="none" stroke="#FFFFFF" stroke-linecap="square" stroke-miterlimit="10" stroke-width="4" data-color="color-2"></polyline><polyline points="44 12 44 4 36 4" fill="none" stroke="#FFFFFF" stroke-linecap="square" stroke-miterlimit="10" stroke-width="4" data-color="color-2"></polyline><polyline points="4 36 4 44 12 44" fill="none" stroke="#FFFFFF" stroke-linecap="square" stroke-miterlimit="10" stroke-width="4" data-color="color-2"></polyline><polyline points="44 36 44 44 36 44" fill="none" stroke="#FFFFFF" stroke-linecap="square" stroke-miterlimit="10" stroke-width="4" data-color="color-2"></polyline><path d="M38,38l-6.275-2.092a4,4,0,0,1-2.735-3.781l-.006-1.974A13.576,13.576,0,0,0,34,20V18.342a10.227,10.227,0,0,0-9.335-10.32A10,10,0,0,0,14,18v2a13.559,13.559,0,0,0,5,10.153v1.964a4,4,0,0,1-2.735,3.8L10,38" fill="none" stroke="#FFFFFF" stroke-linecap="square" stroke-miterlimit="10" stroke-width="4"></path></g></svg>