<svg xmlns="http://www.w3.org/2000/svg" fill="none" viewBox="7.435897435897435 7.44 124.86111111111111 139.19" style="max-height: 500px" width="124.86111111111111" height="139.19">
<path stroke-linecap="round" stroke-width="5" stroke="#00854B" d="M126.875 103.333C126.875 121.598 126.875 130.736 121.564 136.406C116.26 142.083 107.711 142.083 90.625 142.083H54.375C37.2891 142.083 28.7402 142.083 23.4356 136.406C18.125 130.736 18.125 121.598 18.125 103.333V51.6667C18.125 33.4025 18.125 24.264 23.4356 18.5936C28.7402 12.9167 37.2891 12.9167 54.375 12.9167H90.625C107.711 12.9167 116.26 12.9167 121.564 18.5936C126.875 24.264 126.875 33.4025 126.875 51.6667V77.5M48.3333 12.9167V38.75M48.3333 142.083V64.5834M12.0833 77.5H24.1666M12.0833 103.333H24.1666M12.0833 51.6667H24.1666M69.4791 41.9792H99.6875M69.4791 64.5834H99.6875"/>
</svg>